<?xml version="1.0" encoding="utf-8"?>
<!-- Generator: Adobe Illustrator 21.0.0, SVG Export Plug-In . SVG Version: 6.00 Build 0)  -->
<svg version="1.1" xmlns="http://www.w3.org/2000/svg" xmlns:xlink="http://www.w3.org/1999/xlink" x="0px" y="0px"
	 viewBox="0 0 1280 1024" style="enable-background:new 0 0 1280 1024;" xml:space="preserve">
<style type="text/css">
	.st0{fill:#F9F9F9;}
	.st1{fill:#FF5252;}
</style>
<g id="Base">
	<rect class="st0" width="1280" height="1024"/>
</g>
<g id="Capa_2">
	<rect y="617" class="st1" width="1280" height="407"/>
	<path class="st1" d="M51.2,680H0V537h0c28.3,0,51.2,22.9,51.2,51.2V680z"/>
	<path class="st1" d="M1254.4,680L1254.4,680c-14.1,0-25.6-11.5-25.6-25.6v-91.8c0-14.1,11.5-25.6,25.6-25.6h25.6v117.4
		C1280,668.5,1268.5,680,1254.4,680z"/>
	<path class="st0" d="M76.8,680L76.8,680c-14.1,0-25.6-11.5-25.6-25.6v-91.8c0-14.1,11.5-25.6,25.6-25.6h0
		c14.1,0,25.6,11.5,25.6,25.6v91.8C102.4,668.5,90.9,680,76.8,680z"/>
	<path class="st1" d="M128,680L128,680c-14.1,0-25.6-11.5-25.6-25.6V500.6c0-14.1,11.5-25.6,25.6-25.6h0c14.1,0,25.6,11.5,25.6,25.6
		v153.8C153.6,668.5,142.1,680,128,680z"/>
	<path class="st0" d="M179.2,701L179.2,701c-14.1,0-25.6-11.5-25.6-25.6v-91.8c0-14.1,11.5-25.6,25.6-25.6h0
		c14.1,0,25.6,11.5,25.6,25.6v91.8C204.8,689.5,193.3,701,179.2,701z"/>
	<path class="st1" d="M230.4,701L230.4,701c-14.1,0-25.6-11.5-25.6-25.6v-91.8c0-14.1,11.5-25.6,25.6-25.6h0
		c14.1,0,25.6,11.5,25.6,25.6v91.8C256,689.5,244.5,701,230.4,701z"/>
	<path class="st0" d="M281.6,665L281.6,665c-14.1,0-25.6-11.5-25.6-25.6v-91.8c0-14.1,11.5-25.6,25.6-25.6h0
		c14.1,0,25.6,11.5,25.6,25.6v91.8C307.2,653.5,295.7,665,281.6,665z"/>
	<path class="st1" d="M332.8,728L332.8,728c-14.1,0-25.6-11.5-25.6-25.6V547.6c0-14.1,11.5-25.6,25.6-25.6h0
		c14.1,0,25.6,11.5,25.6,25.6v154.8C358.4,716.5,346.9,728,332.8,728z"/>
	<path class="st0" d="M384,649L384,649c-14.1,0-25.6-11.5-25.6-25.6v-91.8c0-14.1,11.5-25.6,25.6-25.6h0c14.1,0,25.6,11.5,25.6,25.6
		v91.8C409.6,637.5,398.1,649,384,649z"/>
	<path class="st1" d="M435.2,680L435.2,680c-14.1,0-25.6-11.5-25.6-25.6v-44.8c0-14.1,11.5-25.6,25.6-25.6h0
		c14.1,0,25.6,11.5,25.6,25.6v44.8C460.8,668.5,449.3,680,435.2,680z"/>
	<path class="st0" d="M486.4,708L486.4,708c-14.1,0-25.6-11.5-25.6-25.6v-91.8c0-14.1,11.5-25.6,25.6-25.6h0
		c14.1,0,25.6,11.5,25.6,25.6v91.8C512,696.5,500.5,708,486.4,708z"/>
	<path class="st1" d="M537.6,680L537.6,680c-14.1,0-25.6-11.5-25.6-25.6v-91.8c0-14.1,11.5-25.6,25.6-25.6h0
		c14.1,0,25.6,11.5,25.6,25.6v91.8C563.2,668.5,551.7,680,537.6,680z"/>
	<path class="st0" d="M588.8,763L588.8,763c-14.1,0-25.6-11.5-25.6-25.6V497.6c0-14.1,11.5-25.6,25.6-25.6h0
		c14.1,0,25.6,11.5,25.6,25.6v239.8C614.4,751.5,602.9,763,588.8,763z"/>
	<path class="st1" d="M640,680L640,680c-14.1,0-25.6-11.5-25.6-25.6v-70.8c0-14.1,11.5-25.6,25.6-25.6l0,0
		c14.1,0,25.6,11.5,25.6,25.6v70.8C665.6,668.5,654.1,680,640,680z"/>
	<path class="st0" d="M691.2,708L691.2,708c-14.1,0-25.6-11.5-25.6-25.6v-91.8c0-14.1,11.5-25.6,25.6-25.6h0
		c14.1,0,25.6,11.5,25.6,25.6v91.8C716.8,696.5,705.3,708,691.2,708z"/>
	<path class="st1" d="M742.4,680L742.4,680c-14.1,0-25.6-11.5-25.6-25.6V547.6c0-14.1,11.5-25.6,25.6-25.6h0
		c14.1,0,25.6,11.5,25.6,25.6v106.8C768,668.5,756.5,680,742.4,680z"/>
	<path class="st0" d="M793.6,737L793.6,737c-14.1,0-25.6-11.5-25.6-25.6v-91.8c0-14.1,11.5-25.6,25.6-25.6h0
		c14.1,0,25.6,11.5,25.6,25.6v91.8C819.2,725.5,807.7,737,793.6,737z"/>
	<path class="st1" d="M844.8,680L844.8,680c-14.1,0-25.6-11.5-25.6-25.6v-50.8c0-14.1,11.5-25.6,25.6-25.6h0
		c14.1,0,25.6,11.5,25.6,25.6v50.8C870.4,668.5,858.9,680,844.8,680z"/>
	<path class="st0" d="M896,708L896,708c-14.1,0-25.6-11.5-25.6-25.6V575.6c0-14.1,11.5-25.6,25.6-25.6l0,0
		c14.1,0,25.6,11.5,25.6,25.6v106.8C921.6,696.5,910.1,708,896,708z"/>
	<path class="st1" d="M947.2,700L947.2,700c-14.1,0-25.6-11.5-25.6-25.6v-50.8c0-14.1,11.5-25.6,25.6-25.6h0
		c14.1,0,25.6,11.5,25.6,25.6v50.8C972.8,688.5,961.3,700,947.2,700z"/>
	<path class="st0" d="M998.4,680L998.4,680c-14.1,0-25.6-11.5-25.6-25.6v-91.8c0-14.1,11.5-25.6,25.6-25.6h0
		c14.1,0,25.6,11.5,25.6,25.6v91.8C1024,668.5,1012.5,680,998.4,680z"/>
	<path class="st1" d="M1049.6,680L1049.6,680c-14.1,0-25.6-11.5-25.6-25.6v-91.8c0-14.1,11.5-25.6,25.6-25.6l0,0
		c14.1,0,25.6,11.5,25.6,25.6v91.8C1075.2,668.5,1063.7,680,1049.6,680z"/>
	<path class="st0" d="M1100.8,680L1100.8,680c-14.1,0-25.6-11.5-25.6-25.6v-91.8c0-14.1,11.5-25.6,25.6-25.6h0
		c14.1,0,25.6,11.5,25.6,25.6v91.8C1126.4,668.5,1114.9,680,1100.8,680z"/>
	<path class="st1" d="M1152,721L1152,721c-14.1,0-25.6-11.5-25.6-25.6v-91.8c0-14.1,11.5-25.6,25.6-25.6l0,0
		c14.1,0,25.6,11.5,25.6,25.6v91.8C1177.6,709.5,1166.1,721,1152,721z"/>
	<path class="st0" d="M1203.2,721L1203.2,721c-14.1,0-25.6-11.5-25.6-25.6v-91.8c0-14.1,11.5-25.6,25.6-25.6h0
		c14.1,0,25.6,11.5,25.6,25.6v91.8C1228.8,709.5,1217.3,721,1203.2,721z"/>
</g>
</svg>
