<?xml version="1.0" encoding="utf-8"?>
<!-- Generator: Adobe Illustrator 22.1.0, SVG Export Plug-In . SVG Version: 6.00 Build 0)  -->
<svg version="1.1" id="Layer_1" xmlns="http://www.w3.org/2000/svg" xmlns:xlink="http://www.w3.org/1999/xlink" x="0px" y="0px"
	 viewBox="0 0 485.4 485.4" style="enable-background:new 0 0 485.4 485.4;" xml:space="preserve">
<style type="text/css">
	.st0{fill:#FFFFFF;}
</style>
<g>
	<g>
		<path class="st0" d="M242.2,16.2L0,223l12.8,14.8l39.4-33.5v264.9h132.9h115.2h132.9V204.3l39.4,33.5l12.8-14.8L242.2,16.2z
			 M279.6,449.5h-75.8v-130h75.8V449.5z M412.6,449.5H299.3V299.8H185.1v149.7H71.9V187.6L242.2,42.8l170.3,144.7L412.6,449.5
			L412.6,449.5z"/>
	</g>
</g>
<g>
	<g>
		<path class="st0" d="M242.2,139.3c-31.5,0-57.1,24.6-57.1,57.1c0,31.5,25.6,57.1,57.1,57.1s57.1-25.6,57.1-57.1
			S273.7,139.3,242.2,139.3z M242.2,233.8c-20.7,0-37.4-16.7-37.4-37.4s16.7-37.4,37.4-37.4s37.4,16.7,37.4,37.4
			S262.9,233.8,242.2,233.8z"/>
	</g>
</g>
</svg>
