<?xml version="1.0" encoding="utf-8"?>
<!-- Generator: Adobe Illustrator 22.1.0, SVG Export Plug-In . SVG Version: 6.00 Build 0)  -->
<svg version="1.1" id="Layer_1" xmlns="http://www.w3.org/2000/svg" xmlns:xlink="http://www.w3.org/1999/xlink" x="0px" y="0px"
	 viewBox="0 0 492.3 492.3" style="enable-background:new 0 0 492.3 492.3;" xml:space="preserve">
<style type="text/css">
	.st0{fill:#FFFFFF;}
</style>
<g>
	<g>
		<path class="st0" d="M483.9,24C406,12.9,324,26,246.2,61.8C168.4,26,86.3,12.9,8.5,24L0,25.2v408.1l11.2-1.6
			c75.3-10.8,155.1,2.4,230.1,37.7l1.5,0.8l2.8,1.7l0.2-0.1l0.5,0.2l3.6-2.2l0.6-0.3c75.5-35.6,155.2-48.7,230.6-38l11.2,1.6V25.2
			L483.9,24z M236.3,445.6c-56.8-24.6-115.6-37.2-173.2-37.2c-14.6,0-29.1,0.8-43.4,2.4V42.4c71-8.4,145.6,4.1,216.6,36.5V445.6z
			 M472.6,410.8c-71.1-8-145.4,3.9-216.6,34.8V78.9c71-32.4,145.6-45,216.6-36.5V410.8z"/>
	</g>
</g>
<g>
	<g>
		<path class="st0" d="M281,369.8l8.4,17.8c50-23.6,102.8-32.3,152.7-25.2l2.8-19.5C391.2,335.3,334.5,344.6,281,369.8z"/>
	</g>
</g>
<g>
	<g>
		<path class="st0" d="M281,290.9l8.4,17.8c50-23.6,102.8-32.3,152.7-25.2l2.8-19.5C391.1,256.4,334.5,265.6,281,290.9z"/>
	</g>
</g>
<g>
	<g>
		<path class="st0" d="M281,212l8.4,17.8c50-23.6,102.8-32.3,152.7-25.2l2.8-19.5C391.2,177.4,334.5,186.7,281,212z"/>
	</g>
</g>
<g>
	<g>
		<path class="st0" d="M281,133l8.4,17.8c50-23.6,102.8-32.3,152.7-25.2l2.8-19.5C391.2,98.5,334.5,107.8,281,133z"/>
	</g>
</g>
<g>
	<g>
		<path class="st0" d="M47.5,343l2.8,19.5c49.9-7.1,102.6,1.6,152.7,25.2l8.4-17.8C157.8,344.6,101.2,335.3,47.5,343z"/>
	</g>
</g>
<g>
	<g>
		<path class="st0" d="M47.5,264l2.8,19.5c49.9-7.1,102.6,1.6,152.7,25.2l8.4-17.8C157.8,265.6,101.1,256.4,47.5,264z"/>
	</g>
</g>
<g>
	<g>
		<path class="st0" d="M47.5,185.1l2.8,19.5c49.9-7.1,102.6,1.6,152.7,25.2l8.4-17.8C157.8,186.7,101.2,177.4,47.5,185.1z"/>
	</g>
</g>
<g>
	<g>
		<path class="st0" d="M47.5,106.1l2.8,19.5c49.9-7.1,102.6,1.6,152.7,25.2l8.4-17.8C157.8,107.8,101.2,98.5,47.5,106.1z"/>
	</g>
</g>
</svg>
