<?xml version="1.0" encoding="utf-8"?>
<!-- Generator: Adobe Illustrator 22.1.0, SVG Export Plug-In . SVG Version: 6.00 Build 0)  -->
<svg version="1.1" id="Layer_1" xmlns="http://www.w3.org/2000/svg" xmlns:xlink="http://www.w3.org/1999/xlink" x="0px" y="0px"
	 viewBox="0 0 492.2 492.2" style="enable-background:new 0 0 492.2 492.2;" xml:space="preserve">
<style type="text/css">
	.st0{fill:#FFFFFF;}
</style>
<g>
	<g>
		<path class="st0" d="M484,92.1l-5.3-14.6l-81.9,81.9l-52.4-11.6l-11.6-52.4l81.9-81.9l-14.6-5.3c-50.7-18.2-108-5.5-145.9,32.5
			c-26.4,26.4-40.9,61.4-40.9,98.7c0,9.4,0.9,18.7,2.8,27.7L22.6,360.6C8,375.2,0,394.5,0,415.1c0,20.6,8,40,22.6,54.5
			c15,15,34.8,22.6,54.5,22.6c19.8,0,39.5-7.5,54.5-22.6l193.5-193.5c9,1.8,18.3,2.8,27.7,2.8c37.3,0,72.3-14.5,98.7-40.9
			C489.5,200,502.3,142.8,484,92.1z M117.7,455.7c-22.4,22.4-58.8,22.4-81.2,0c-10.8-10.8-16.8-25.3-16.8-40.6
			c0-15.3,6-29.8,16.8-40.6l185.9-185.9c6.9,18.3,17.6,35.2,31.8,49.4c14.2,14.2,31.1,24.9,49.4,31.8L117.7,455.7z M437.6,224.1
			c-22.6,22.6-52.7,35.1-84.7,35.1c-32,0-62.1-12.5-84.7-35.1c-22.6-22.6-35.1-52.7-35.1-84.7c0-32,12.5-62.1,35.1-84.7
			c22.7-22.7,53.5-34.9,84.8-34.9c8.4,0,16.8,0.9,25.1,2.6l-66.7,66.7l16.6,75.2l75.2,16.6l66.7-66.7
			C478.3,153.5,466.4,195.3,437.6,224.1z"/>
	</g>
</g>
<g>
	<g>
		<path class="st0" d="M106.2,386.1c-7.5-7.5-17.5-11.7-28.2-11.7s-20.6,4.1-28.2,11.7c-15.5,15.5-15.5,40.8,0,56.3
			c7.8,7.8,18,11.6,28.2,11.6c10.2,0,20.4-3.9,28.2-11.6c7.5-7.5,11.7-17.5,11.7-28.2S113.7,393.6,106.2,386.1z M92.3,428.5
			c-7.9,7.8-20.6,7.8-28.5,0c-7.9-7.9-7.9-20.6,0-28.5c3.8-3.8,8.9-5.9,14.2-5.9c5.4,0,10.4,2.1,14.2,5.9c3.8,3.8,5.9,8.9,5.9,14.2
			C98.2,419.6,96.1,424.7,92.3,428.5z"/>
	</g>
</g>
</svg>
