<?xml version="1.0" standalone="no"?>
<!DOCTYPE svg PUBLIC "-//W3C//DTD SVG 20010904//EN"
 "http://www.w3.org/TR/2001/REC-SVG-20010904/DTD/svg10.dtd">
<svg version="1.0" xmlns="http://www.w3.org/2000/svg"
 width="1024.000000pt" height="1024.000000pt" viewBox="0 0 1024.000000 1024.000000"
 preserveAspectRatio="xMidYMid meet">
<metadata>
Created by potrace 1.11, written by Peter Selinger 2001-2013
</metadata>
<g transform="translate(0.000000,1024.000000) scale(0.100000,-0.100000)"
fill="#000000" stroke="none">
<path d="M7990 9704 c-96 -18 -130 -30 -197 -71 -84 -53 -94 -61 -144 -123
-50 -63 -94 -154 -105 -220 -25 -152 22 -306 125 -409 45 -45 124 -101 143
-101 8 0 18 -4 24 -9 36 -34 238 -52 330 -30 239 58 411 257 418 485 9 303
-278 535 -594 478z"/>
<path d="M8600 8493 c-47 -13 -94 -25 -105 -27 -11 -2 -74 -18 -140 -36 -299
-81 -364 -98 -430 -115 -38 -10 -71 -19 -73 -20 -2 -2 49 -229 67 -295 6 -19
13 -51 16 -70 3 -19 10 -53 15 -75 5 -22 11 -53 14 -70 3 -16 8 -39 10 -50 25
-117 76 -390 101 -545 3 -19 10 -62 15 -95 16 -92 68 -463 75 -530 4 -33 8
-71 10 -85 2 -14 7 -52 10 -85 3 -33 8 -76 10 -95 20 -172 39 -407 52 -675 14
-285 8 -962 -11 -1145 -2 -19 -7 -73 -11 -120 -3 -47 -8 -92 -10 -100 -2 -8
-6 -42 -10 -75 -22 -211 -90 -566 -121 -631 -35 -73 -96 -63 -189 31 -74 75
-221 284 -330 470 -16 28 -34 58 -40 67 -5 9 -116 201 -245 425 -271 472 -303
526 -435 743 -150 248 -370 574 -463 689 -308 383 -523 542 -728 542 -234 0
-426 -235 -580 -711 -55 -168 -138 -498 -168 -665 -3 -16 -23 -129 -45 -250
-22 -121 -42 -240 -46 -265 -3 -25 -10 -70 -15 -100 -13 -77 -38 -236 -45
-290 -3 -25 -11 -74 -16 -110 -5 -36 -12 -76 -14 -90 -2 -14 -7 -45 -11 -70
-4 -25 -8 -56 -10 -70 -3 -26 -17 -122 -19 -130 -1 -3 -5 -30 -9 -60 -4 -30
-19 -120 -32 -198 -14 -79 -27 -163 -30 -185 -4 -23 -17 -94 -30 -157 -14 -63
-27 -128 -30 -145 -3 -16 -17 -72 -30 -124 -59 -220 -121 -346 -189 -378 -43
-20 -75 -12 -126 34 -53 48 -206 230 -313 373 -47 63 -90 120 -96 127 -45 54
-274 408 -381 591 -159 270 -407 755 -530 1038 -20 47 -55 124 -84 189 -8 17
-41 98 -75 180 -34 83 -67 164 -75 180 -7 17 -57 147 -110 290 -140 372 -290
830 -390 1188 -13 46 -20 57 -33 53 -39 -12 -380 -103 -413 -111 -12 -2 -36
-9 -53 -14 -34 -11 -200 -55 -286 -76 -30 -8 -67 -18 -82 -24 l-26 -10 15 -53
c113 -404 326 -1027 501 -1468 129 -324 199 -487 342 -800 121 -265 322 -662
435 -860 23 -41 53 -95 67 -120 104 -185 325 -543 339 -548 5 -2 9 -8 9 -13 0
-5 15 -31 33 -57 18 -26 60 -85 92 -132 53 -77 215 -295 250 -338 8 -9 38 -46
66 -82 174 -220 484 -544 689 -720 172 -149 422 -329 585 -422 53 -30 267
-141 275 -143 3 0 27 -11 55 -23 122 -56 403 -148 500 -165 17 -3 55 -11 85
-17 30 -6 73 -13 95 -16 22 -3 51 -8 65 -10 42 -8 221 -18 310 -18 102 0 328
12 338 17 4 3 32 8 62 12 87 11 93 12 156 25 627 126 1174 447 1570 921 174
210 351 497 469 759 29 65 35 80 75 180 20 49 109 297 109 303 0 1 2 9 5 17 6
18 60 211 71 255 5 17 9 35 11 40 6 23 73 333 78 365 4 19 9 53 12 75 3 22 7
46 10 54 2 8 11 64 20 125 8 61 17 122 19 136 4 32 17 138 20 170 1 14 5 54 9
90 35 358 47 835 32 1285 -5 121 -9 243 -11 270 -7 121 -17 273 -20 305 -2 19
-6 78 -10 130 -4 52 -8 101 -10 110 -2 13 -8 70 -20 190 -2 14 -6 61 -10 105
-4 44 -9 82 -10 85 -2 3 -6 34 -9 70 -4 36 -10 83 -13 105 -3 22 -7 47 -8 55
-14 105 -24 176 -30 210 -4 23 -11 70 -20 140 -2 14 -6 41 -10 60 -3 19 -10
60 -15 90 -5 30 -12 69 -14 85 -15 91 -48 273 -65 360 -11 55 -22 111 -24 125
-3 14 -13 61 -22 105 -9 44 -18 88 -20 98 -2 10 -6 26 -9 35 -3 9 -8 33 -11
52 -3 19 -25 112 -48 206 l-42 171 -85 -24z"/>
<path d="M1370 7843 c-129 -33 -217 -115 -259 -240 -47 -139 -8 -286 103 -397
80 -79 185 -125 291 -127 248 -5 429 195 386 427 -44 240 -287 397 -521 337z"/>
</g>
</svg>
